<svg xmlns="http://www.w3.org/2000/svg" version="1.1" xmlns:xlink="http://www.w3.org/1999/xlink" xmlns:svgjs="http://svgjs.com/svgjs" width="1440" height="560" preserveAspectRatio="none" viewBox="0 0 1440 560"><g mask="url(&quot;#SvgjsMask1832&quot;)" fill="none"><rect width="1440" height="560" x="0" y="0" fill="url(#SvgjsLinearGradient1833)"></rect><path d="M1440 0L789.34 0L1440 257.05z" fill="rgba(255, 255, 255, .1)"></path><path d="M789.34 0L1440 257.05L1440 352.17L388.32000000000005 0z" fill="rgba(255, 255, 255, .075)"></path><path d="M388.32000000000016 0L1440 352.17L1440 382.48L221.88000000000017 0z" fill="rgba(255, 255, 255, .05)"></path><path d="M221.8800000000001 0L1440 382.48L1440 443.09000000000003L154.9100000000001 0z" fill="rgba(255, 255, 255, .025)"></path><path d="M0 560L349.63 560L0 538.84z" fill="rgba(0, 0, 0, .1)"></path><path d="M0 538.84L349.63 560L796.54 560L0 337.13z" fill="rgba(0, 0, 0, .075)"></path><path d="M0 337.13L796.54 560L1144.61 560L0 213.06z" fill="rgba(0, 0, 0, .05)"></path><path d="M0 213.06L1144.61 560L1164.9699999999998 560L0 117.97z" fill="rgba(0, 0, 0, .025)"></path></g><defs><mask id="SvgjsMask1832"><rect width="1440" height="560" fill="#ffffff"></rect></mask><linearGradient x1="50%" y1="100%" x2="50%" y2="0%" gradientUnits="userSpaceOnUse" id="SvgjsLinearGradient1833"><stop stop-color="#0e2a47" offset="0"></stop><stop stop-color="rgba(102, 205, 255, 1)" offset="0"></stop></linearGradient></defs></svg>